<?xml version="1.0" encoding="UTF-8" standalone="no"?>
<!-- Created with Inkscape (http://www.inkscape.org/) -->

<svg
   xmlns:dc="http://purl.org/dc/elements/1.1/"
   xmlns:cc="http://creativecommons.org/ns#"
   xmlns:rdf="http://www.w3.org/1999/02/22-rdf-syntax-ns#"
   xmlns:svg="http://www.w3.org/2000/svg"
   xmlns="http://www.w3.org/2000/svg"
   xmlns:sodipodi="http://sodipodi.sourceforge.net/DTD/sodipodi-0.dtd"
   xmlns:inkscape="http://www.inkscape.org/namespaces/inkscape"
   width="110"
   height="40"
   viewBox="0 0 29.104165 10.583334"
   version="1.1"
   id="svg8"
   inkscape:version="0.92.1 r"
   sodipodi:docname="bastigram.svg">
  <defs
     id="defs2" />
  <sodipodi:namedview
     id="base"
     pagecolor="#ffffff"
     bordercolor="#666666"
     borderopacity="1.0"
     inkscape:pageopacity="0.0"
     inkscape:pageshadow="2"
     inkscape:zoom="3.959798"
     inkscape:cx="132.47148"
     inkscape:cy="-13.080649"
     inkscape:document-units="mm"
     inkscape:current-layer="layer1"
     showgrid="false"
     inkscape:window-width="2560"
     inkscape:window-height="1011"
     inkscape:window-x="0"
     inkscape:window-y="35"
     inkscape:window-maximized="1"
     units="px" />
  <metadata
     id="metadata5">
    <rdf:RDF>
      <cc:Work
         rdf:about="">
        <dc:format>image/svg+xml</dc:format>
        <dc:type
           rdf:resource="http://purl.org/dc/dcmitype/StillImage" />
        <dc:title></dc:title>
      </cc:Work>
    </rdf:RDF>
  </metadata>
  <g
     inkscape:label="Layer 1"
     inkscape:groupmode="layer"
     id="layer1"
     transform="translate(0,-286.41665)">
    <path
       style="fill:#000000;stroke-width:0.35277775"
       d="m 0.02541117,287.58917 c 0.72973072,-0.70443 1.97712653,-0.94951 2.92929733,-0.85581 1.1065594,0.82624 -0.2791972,2.01993 -0.2967538,2.91735 0.5711157,0.29519 1.5385805,1.53815 1.6264309,0.1559 0.2053134,-1.17072 2.6494642,-0.87342 1.707499,0.30272 -0.6050085,0.41826 -0.1588981,-0.81187 -0.8768924,-0.31908 -1.0189032,0.70991 0.1445172,2.05356 1.0410187,1.28724 0.4510666,-0.36101 0.6270725,-1.63277 1.1235296,-0.54567 0.1147423,0.54798 0.5563977,1.13724 1.0928052,0.6049 0.4735275,0.39228 1.5496941,-0.0195 0.7726185,-0.48894 -1.2345309,-0.26073 -0.7479557,-1.70706 0.3574433,-1.54175 1.0467685,0.16975 -0.4219835,0.99809 0.5847285,1.23659 1.15809,0.93897 -0.8179267,2.00754 -1.7395202,1.75428 -0.6042523,-0.38989 -0.8823014,0.89999 -1.3566571,-0.0121 -0.4011154,-1.09044 -1.6567407,0.23977 -2.4861018,-0.51994 -0.4469501,-0.2767 -0.3012629,1.09111 -0.9927663,1.18406 -0.9634409,0.45232 -2.3302231,0.35662 -3.16224774,-0.30981 0.24873631,-0.91089 0.0740071,-1.99764 0.0310049,-3.00312 0.20773737,-0.68611 -0.26081222,-1.19406 -0.3554386,-1.84627 z m 0.77046438,0.36613 c 0.51559085,1.03694 0.38727425,2.24584 0.48512985,3.36727 -0.1936779,1.04334 1.6796027,1.25259 2.1225549,0.62179 0.3756867,-1.19823 -1.0116111,-1.65439 -1.7416461,-2.13103 -0.39257,-0.94185 1.5009439,-1.40975 0.7235591,-2.32886 -0.4313433,-0.0957 -1.44154252,0.009 -1.58959775,0.47083 z m 8.66079635,1.84905 c 0.067522,0.25359 -0.067388,-0.27807 0,0 z m 0.6328371,0.10434 c 0.497838,-0.38994 1.707959,-0.208 1.272816,-1.19814 0.0099,-0.68634 -0.0736,-2.22685 0.632657,-2.24332 0.300008,0.99968 -0.322418,2.10747 0.08021,3.07905 0.591359,0.38467 1.032036,0.90034 0.381705,1.47326 0.0035,0.47379 -0.220381,1.79549 -0.799417,0.94949 -0.04097,-0.79734 -0.214184,-2.12207 -1.354923,-1.67762 -0.175951,-0.0207 -0.300567,-0.22426 -0.213053,-0.38272 z m 2.701102,4.99483 c 0.28713,-0.89608 0.998495,0.7111 1.625961,0.64634 0.632835,0.32689 1.826835,1.07564 2.310951,0.55529 -0.16692,-1.2205 -0.560747,-2.3963 -0.809912,-3.60037 -0.191808,-0.95385 -1.36141,-0.17741 -1.671353,-1.10604 -0.462385,-0.35127 0.194575,1.45895 -0.761513,0.96431 -0.178669,-0.74194 -0.262834,-1.74967 -0.08922,-2.55262 0.579025,0.0134 0.691815,1.38492 1.032391,0.2444 0.527933,-0.76948 1.660783,-0.57444 1.664017,0.37138 0.318354,0.93628 0.327591,1.95159 0.681548,2.88847 0.191478,1.05659 0.812408,2.08339 0.641955,3.16412 -0.660911,1.14403 -2.244486,0.099 -3.138229,-0.25416 -0.501425,-0.35426 -1.388504,-0.6482 -1.486596,-1.32112 z m 2.031083,-3.93418 c 0.63735,1.33357 1.375702,-1.29192 0.306888,-0.76174 -0.20227,0.17703 -0.431159,0.48105 -0.306888,0.76174 z m -1.428186,-2.9617 c 1.08153,-0.87935 0.602623,1.60791 0.0066,0.60881 -0.02985,-0.20023 -0.06395,-0.40929 -0.0066,-0.60881 z m 3.676696,1.43093 c 0.886215,0.02 1.832769,-0.0346 2.586048,-0.52584 0.618584,1.0063 -1.102716,0.93416 -1.583428,1.41676 0.209353,0.47564 0.387549,2.61172 -0.490406,1.56617 -0.06935,-0.87104 -0.03489,-1.75129 -0.512214,-2.45709 z m 2.568664,0.93198 c 0.152133,-1.01902 2.200236,-1.90864 2.151447,-0.35536 0.572032,0.25364 0.561827,1.69548 0.928567,1.49235 0.21012,-0.77447 -0.784597,-2.55147 0.338789,-2.62173 0.351652,0.35251 0.166988,1.74999 0.753201,0.74262 0.891677,-0.64376 0.486332,1.99127 1.229574,0.79466 0.199253,-0.88697 1.351492,-1.23291 1.307761,-0.0387 0.09839,0.56836 0.68182,2.1813 -0.231113,2.0359 -0.288312,-0.42223 -0.165703,-2.25264 -0.855402,-1.08413 -0.410096,0.91238 -1.225336,0.83424 -1.345538,-0.0554 -0.337144,0.52386 -0.459838,1.60713 -1.229851,1.1353 -1.098199,0.40429 -0.443271,-1.95814 -1.592206,-0.99223 -0.860486,0.65193 -1.472878,-0.193 -1.455229,-1.05322 z m 0.768814,0.46238 c 0.828251,0.43258 0.991015,-0.71205 0.515725,-0.76694 0.198187,-0.56019 -1.092659,0.4268 -0.515725,0.76694 z"
       id="path21"
       inkscape:connector-curvature="0" />
  </g>
</svg>
