  0
SECTION
  2
HEADER
  9
$ACADVER
  1
AC1014
  9
$HANDSEED
  5
FFFF
  9
$MEASUREMENT
 70
     1
  0
ENDSEC
  0
SECTION
  2
TABLES
  0
TABLE
  2
VPORT
  5
8
330
0
100
AcDbSymbolTable
 70
     4
  0
VPORT
  5
2E
330
8
100
AcDbSymbolTableRecord
100
AcDbViewportTableRecord
  2
*ACTIVE
 70
     0
 10
0.0
 20
0.0
 11
1.0
 21
1.0
 12
210.0
 22
148.5
 13
0.0
 23
0.0
 14
10.0
 24
10.0
 15
10.0
 25
10.0
 16
0.0
 26
0.0
 36
1.0
 17
0.0
 27
0.0
 37
0.0
 40
341.0
 41
1.24
 42
50.0
 43
0.0
 44
0.0
 50
0.0
 51
0.0
 71
     0
 72
   100
 73
     1
 74
     3
 75
     0
 76
     0
 77
     0
 78
     0
  0
ENDTAB
  0
TABLE
  2
LTYPE
  5
5
330
0
100
AcDbSymbolTable
 70
     1
  0
LTYPE
  5
14
330
5
100
AcDbSymbolTableRecord
100
AcDbLinetypeTableRecord
  2
BYBLOCK
 70
     0
  3

 72
    65
 73
     0
 40
0.0
  0
LTYPE
  5
15
330
5
100
AcDbSymbolTableRecord
100
AcDbLinetypeTableRecord
  2
BYLAYER
 70
     0
  3

 72
    65
 73
     0
 40
0.0
  0
LTYPE
  5
16
330
5
100
AcDbSymbolTableRecord
100
AcDbLinetypeTableRecord
  2
CONTINUOUS
 70
     0
  3
Solid line
 72
    65
 73
     0
 40
0.0
  0
ENDTAB
  0
TABLE
  2
LAYER
  5
2
100
AcDbSymbolTable
 70
2
  0
LAYER
  5
50
100
AcDbSymbolTableRecord
100
AcDbLayerTableRecord
  2
0
 70
0
  6
CONTINUOUS
  0
LAYER
  5
51
100
AcDbSymbolTableRecord
100
AcDbLayerTableRecord
  2
Layer_1
 70
0
  6
CONTINUOUS
  0
ENDTAB
  0
TABLE
  2
STYLE
  5
3
330
0
100
AcDbSymbolTable
 70
     1
  0
STYLE
  5
11
330
3
100
AcDbSymbolTableRecord
100
AcDbTextStyleTableRecord
  2
STANDARD
 70
     0
 40
0.0
 41
1.0
 50
0.0
 71
     0
 42
2.5
  3
txt
  4

  0
ENDTAB
  0
TABLE
  2
VIEW
  5
6
330
0
100
AcDbSymbolTable
 70
     0
  0
ENDTAB
  0
TABLE
  2
UCS
  5
7
330
0
100
AcDbSymbolTable
 70
     0
  0
ENDTAB
  0
TABLE
  2
APPID
  5
9
330
0
100
AcDbSymbolTable
 70
     2
  0
APPID
  5
12
330
9
100
AcDbSymbolTableRecord
100
AcDbRegAppTableRecord
  2
ACAD
 70
     0
  0
ENDTAB
  0
TABLE
  2
DIMSTYLE
  5
A
330
0
100
AcDbSymbolTable
 70
     1
  0
DIMSTYLE
105
27
330
A
100
AcDbSymbolTableRecord
100
AcDbDimStyleTableRecord
  2
ISO-25
 70
     0
  3

  4

  5

  6

  7

 40
1.0
 41
2.5
 42
0.625
 43
3.75
 44
1.25
 45
0.0
 46
0.0
 47
0.0
 48
0.0
140
2.5
141
2.5
142
0.0
143
0.03937007874016
144
1.0
145
0.0
146
1.0
147
0.625
 71
     0
 72
     0
 73
     0
 74
     0
 75
     0
 76
     0
 77
     1
 78
     8
170
     0
171
     3
172
     1
173
     0
174
     0
175
     0
176
     0
177
     0
178
     0
270
     2
271
     2
272
     2
273
     2
274
     3
340
11
275
     0
280
     0
281
     0
282
     0
283
     0
284
     8
285
     0
286
     0
287
     3
288
     0
  0
ENDTAB
  0
TABLE
  2
BLOCK_RECORD
  5
1
330
0
100
AcDbSymbolTable
 70
     1
  0
BLOCK_RECORD
  5
1F
330
1
100
AcDbSymbolTableRecord
100
AcDbBlockTableRecord
  2
*MODEL_SPACE
  0
BLOCK_RECORD
  5
1B
330
1
100
AcDbSymbolTableRecord
100
AcDbBlockTableRecord
  2
*PAPER_SPACE
  0
ENDTAB
  0
ENDSEC
  0
SECTION
  2
BLOCKS
  0
BLOCK
  5
20
330
1F
100
AcDbEntity
  8
0
100
AcDbBlockBegin
  2
*MODEL_SPACE
 70
     0
 10
0.0
 20
0.0
 30
0.0
  3
*MODEL_SPACE
  1

  0
ENDBLK
  5
21
330
1F
100
AcDbEntity
  8
0
100
AcDbBlockEnd
  0
BLOCK
  5
1C
330
1B
100
AcDbEntity
 67
     1
  8
0
100
AcDbBlockBegin
  2
*PAPER_SPACE
  1

  0
ENDBLK
  5
1D
330
1B
100
AcDbEntity
 67
     1
  8
0
100
AcDbBlockEnd
  0
ENDSEC
  0
SECTION
  2
ENTITIES
  0
SPLINE
  5
100
100
AcDbEntity
  8
Layer_1
 62
7
100
AcDbSpline
 70
8
 71
3
 72
8
 73
4
 74
0
 40
0
 40
0
 40
0
 40
0
 40
1
 40
1
 40
1
 40
1
 10
6.695159
 20
12.008668
 30
0.0
 10
5.357757
 20
13.420094
 30
0.0
 10
5.122243
 20
15.577411
 30
0.0
 10
5.124957
 20
17.475263
 30
0.0
  0
SPLINE
  5
101
100
AcDbEntity
  8
Layer_1
 62
7
100
AcDbSpline
 70
8
 71
3
 72
8
 73
4
 74
0
 40
0
 40
0
 40
0
 40
0
 40
1
 40
1
 40
1
 40
1
 10
5.124957
 20
17.475263
 30
0.0
 10
5.172545
 20
20.454929
 30
0.0
 10
4.981108
 20
23.455420
 30
0.0
 10
5.273859
 20
26.417663
 30
0.0
  0
SPLINE
  5
102
100
AcDbEntity
  8
Layer_1
 62
7
100
AcDbSpline
 70
8
 71
3
 72
8
 73
4
 74
0
 40
0
 40
0
 40
0
 40
0
 40
1
 40
1
 40
1
 40
1
 10
5.273859
 20
26.417663
 30
0.0
 10
4.269850
 20
27.218129
 30
0.0
 10
2.879033
 20
27.808416
 30
0.0
 10
1.740538
 20
28.531931
 30
0.0
  0
SPLINE
  5
103
100
AcDbEntity
  8
Layer_1
 62
7
100
AcDbSpline
 70
8
 71
3
 72
8
 73
4
 74
0
 40
0
 40
0
 40
0
 40
0
 40
1
 40
1
 40
1
 40
1
 10
1.740538
 20
28.531931
 30
0.0
 10
1.055003
 20
29.063597
 30
0.0
 10
-1.120074
 20
29.639748
 30
0.0
 10
0.726290
 20
30.123679
 30
0.0
  0
SPLINE
  5
104
100
AcDbEntity
  8
Layer_1
 62
7
100
AcDbSpline
 70
8
 71
3
 72
8
 73
4
 74
0
 40
0
 40
0
 40
0
 40
0
 40
1
 40
1
 40
1
 40
1
 10
0.726290
 20
30.123679
 30
0.0
 10
2.574193
 20
31.083490
 30
0.0
 10
4.345925
 20
32.214627
 30
0.0
 10
5.979191
 20
33.526728
 30
0.0
  0
SPLINE
  5
105
100
AcDbEntity
  8
Layer_1
 62
7
100
AcDbSpline
 70
8
 71
3
 72
8
 73
4
 74
0
 40
0
 40
0
 40
0
 40
0
 40
1
 40
1
 40
1
 40
1
 10
5.979191
 20
33.526728
 30
0.0
 10
3.792779
 20
33.277657
 30
0.0
 10
5.384089
 20
35.560227
 30
0.0
 10
6.639490
 20
35.763490
 30
0.0
  0
SPLINE
  5
106
100
AcDbEntity
  8
Layer_1
 62
7
100
AcDbSpline
 70
8
 71
3
 72
8
 73
4
 74
0
 40
0
 40
0
 40
0
 40
0
 40
1
 40
1
 40
1
 40
1
 10
6.639490
 20
35.763490
 30
0.0
 10
9.119743
 20
37.008164
 30
0.0
 10
11.698445
 20
38.283074
 30
0.0
 10
14.478582
 20
38.540573
 30
0.0
  0
SPLINE
  5
107
100
AcDbEntity
  8
Layer_1
 62
7
100
AcDbSpline
 70
8
 71
3
 72
8
 73
4
 74
0
 40
0
 40
0
 40
0
 40
0
 40
1
 40
1
 40
1
 40
1
 10
14.478582
 20
38.540573
 30
0.0
 10
15.722615
 20
38.692888
 30
0.0
 10
17.406873
 20
38.298306
 30
0.0
 10
18.326741
 20
38.176227
 30
0.0
  0
SPLINE
  5
108
100
AcDbEntity
  8
Layer_1
 62
7
100
AcDbSpline
 70
8
 71
3
 72
8
 73
4
 74
0
 40
0
 40
0
 40
0
 40
0
 40
1
 40
1
 40
1
 40
1
 10
18.326741
 20
38.176227
 30
0.0
 10
17.922135
 20
38.845468
 30
0.0
 10
15.813016
 20
40.532989
 30
0.0
 10
17.699928
 20
39.833361
 30
0.0
  0
SPLINE
  5
109
100
AcDbEntity
  8
Layer_1
 62
7
100
AcDbSpline
 70
8
 71
3
 72
8
 73
4
 74
0
 40
0
 40
0
 40
0
 40
0
 40
1
 40
1
 40
1
 40
1
 10
17.699928
 20
39.833361
 30
0.0
 10
20.771137
 20
39.166917
 30
0.0
 10
23.868056
 20
38.599912
 30
0.0
 10
26.906617
 20
37.790337
 30
0.0
  0
SPLINE
  5
10a
100
AcDbEntity
  8
Layer_1
 62
7
100
AcDbSpline
 70
8
 71
3
 72
8
 73
4
 74
0
 40
0
 40
0
 40
0
 40
0
 40
1
 40
1
 40
1
 40
1
 10
26.906617
 20
37.790337
 30
0.0
 10
27.915619
 20
36.774362
 30
0.0
 10
28.688135
 20
35.478362
 30
0.0
 10
29.627424
 20
34.369562
 30
0.0
  0
SPLINE
  5
10b
100
AcDbEntity
  8
Layer_1
 62
7
100
AcDbSpline
 70
8
 71
3
 72
8
 73
4
 74
0
 40
0
 40
0
 40
0
 40
0
 40
1
 40
1
 40
1
 40
1
 10
29.627424
 20
34.369562
 30
0.0
 10
30.763647
 20
33.290129
 30
0.0
 10
28.967153
 20
31.899981
 30
0.0
 10
28.662476
 20
30.677266
 30
0.0
  0
SPLINE
  5
10c
100
AcDbEntity
  8
Layer_1
 62
7
100
AcDbSpline
 70
8
 71
3
 72
8
 73
4
 74
0
 40
0
 40
0
 40
0
 40
0
 40
1
 40
1
 40
1
 40
1
 10
28.662476
 20
30.677266
 30
0.0
 10
27.796746
 20
28.977008
 30
0.0
 10
26.915473
 20
27.284082
 30
0.0
 10
26.298577
 20
25.465865
 30
0.0
  0
SPLINE
  5
10d
100
AcDbEntity
  8
Layer_1
 62
7
100
AcDbSpline
 70
8
 71
3
 72
8
 73
4
 74
0
 40
0
 40
0
 40
0
 40
0
 40
1
 40
1
 40
1
 40
1
 10
26.298577
 20
25.465865
 30
0.0
 10
25.713562
 20
24.206866
 30
0.0
 10
26.162998
 20
22.750123
 30
0.0
 10
26.028152
 20
21.396372
 30
0.0
  0
SPLINE
  5
10e
100
AcDbEntity
  8
Layer_1
 62
7
100
AcDbSpline
 70
8
 71
3
 72
8
 73
4
 74
0
 40
0
 40
0
 40
0
 40
0
 40
1
 40
1
 40
1
 40
1
 10
26.028152
 20
21.396372
 30
0.0
 10
25.927431
 20
18.901846
 30
0.0
 10
26.302398
 20
16.316384
 30
0.0
 10
25.554144
 20
13.902589
 30
0.0
  0
SPLINE
  5
10f
100
AcDbEntity
  8
Layer_1
 62
7
100
AcDbSpline
 70
8
 71
3
 72
8
 73
4
 74
0
 40
0
 40
0
 40
0
 40
0
 40
1
 40
1
 40
1
 40
1
 10
25.554144
 20
13.902589
 30
0.0
 10
23.474425
 20
9.383219
 30
0.0
 10
18.174471
 20
0.391874
 30
0.0
 10
15.756384
 20
0.360920
 30
0.0
  0
SPLINE
  5
110
100
AcDbEntity
  8
Layer_1
 62
7
100
AcDbSpline
 70
8
 71
3
 72
8
 73
4
 74
0
 40
0
 40
0
 40
0
 40
0
 40
1
 40
1
 40
1
 40
1
 10
15.756384
 20
0.360920
 30
0.0
 10
13.017802
 20
0.280416
 30
0.0
 10
7.594354
 20
10.520517
 30
0.0
 10
6.695159
 20
12.008668
 30
0.0
  0
SPLINE
  5
111
100
AcDbEntity
  8
Layer_1
 62
7
100
AcDbSpline
 70
8
 71
3
 72
8
 73
4
 74
0
 40
0
 40
0
 40
0
 40
0
 40
1
 40
1
 40
1
 40
1
 10
23.094277
 20
13.352894
 30
0.0
 10
23.694007
 20
15.242583
 30
0.0
 10
24.094630
 20
16.323717
 30
0.0
 10
24.154429
 20
17.841613
 30
0.0
  0
SPLINE
  5
112
100
AcDbEntity
  8
Layer_1
 62
7
100
AcDbSpline
 70
8
 71
3
 72
8
 73
4
 74
0
 40
0
 40
0
 40
0
 40
0
 40
1
 40
1
 40
1
 40
1
 10
24.154429
 20
17.841613
 30
0.0
 10
24.095537
 20
20.719307
 30
0.0
 10
24.324005
 20
23.620586
 30
0.0
 10
23.946260
 20
26.470614
 30
0.0
  0
SPLINE
  5
113
100
AcDbEntity
  8
Layer_1
 62
7
100
AcDbSpline
 70
8
 71
3
 72
8
 73
4
 74
0
 40
0
 40
0
 40
0
 40
0
 40
1
 40
1
 40
1
 40
1
 10
23.946260
 20
26.470614
 30
0.0
 10
23.687045
 20
27.952113
 30
0.0
 10
22.556611
 20
29.171011
 30
0.0
 10
21.121256
 20
29.450431
 30
0.0
  0
SPLINE
  5
114
100
AcDbEntity
  8
Layer_1
 62
7
100
AcDbSpline
 70
8
 71
3
 72
8
 73
4
 74
0
 40
0
 40
0
 40
0
 40
0
 40
1
 40
1
 40
1
 40
1
 10
21.121256
 20
29.450431
 30
0.0
 10
18.692871
 20
29.872756
 30
0.0
 10
16.203208
 20
29.615597
 30
0.0
 10
13.746002
 20
29.687786
 30
0.0
  0
SPLINE
  5
115
100
AcDbEntity
  8
Layer_1
 62
7
100
AcDbSpline
 70
8
 71
3
 72
8
 73
4
 74
0
 40
0
 40
0
 40
0
 40
0
 40
1
 40
1
 40
1
 40
1
 10
13.746002
 20
29.687786
 30
0.0
 10
12.225568
 20
30.086602
 30
0.0
 10
11.623146
 20
28.281726
 30
0.0
 10
10.611161
 20
27.478728
 30
0.0
  0
SPLINE
  5
116
100
AcDbEntity
  8
Layer_1
 62
7
100
AcDbSpline
 70
8
 71
3
 72
8
 73
4
 74
0
 40
0
 40
0
 40
0
 40
0
 40
1
 40
1
 40
1
 40
1
 10
10.611161
 20
27.478728
 30
0.0
 10
11.554027
 20
26.438564
 30
0.0
 10
10.175559
 20
24.605342
 30
0.0
 10
8.963906
 20
25.446513
 30
0.0
  0
SPLINE
  5
117
100
AcDbEntity
  8
Layer_1
 62
7
100
AcDbSpline
 70
8
 71
3
 72
8
 73
4
 74
0
 40
0
 40
0
 40
0
 40
0
 40
1
 40
1
 40
1
 40
1
 10
8.963906
 20
25.446513
 30
0.0
 10
8.310570
 20
26.094476
 30
0.0
 10
8.370660
 20
27.023106
 30
0.0
 10
7.223645
 20
26.475339
 30
0.0
  0
SPLINE
  5
118
100
AcDbEntity
  8
Layer_1
 62
7
100
AcDbSpline
 70
8
 71
3
 72
8
 73
4
 74
0
 40
0
 40
0
 40
0
 40
0
 40
1
 40
1
 40
1
 40
1
 10
7.223645
 20
26.475339
 30
0.0
 10
6.965526
 20
25.332258
 30
0.0
 10
7.022778
 20
24.007458
 30
0.0
 10
6.990240
 20
22.789997
 30
0.0
  0
SPLINE
  5
119
100
AcDbEntity
  8
Layer_1
 62
7
100
AcDbSpline
 70
8
 71
3
 72
8
 73
4
 74
0
 40
0
 40
0
 40
0
 40
0
 40
1
 40
1
 40
1
 40
1
 10
6.990240
 20
22.789997
 30
0.0
 10
7.060392
 20
20.187830
 30
0.0
 10
6.808256
 20
17.555238
 30
0.0
 10
7.246069
 20
14.988409
 30
0.0
  0
SPLINE
  5
11a
100
AcDbEntity
  8
Layer_1
 62
7
100
AcDbSpline
 70
8
 71
3
 72
8
 73
4
 74
0
 40
0
 40
0
 40
0
 40
0
 40
1
 40
1
 40
1
 40
1
 10
7.246069
 20
14.988409
 30
0.0
 10
8.671995
 20
11.148145
 30
0.0
 10
14.081351
 20
2.360630
 30
0.0
 10
15.847845
 20
2.308246
 30
0.0
  0
SPLINE
  5
11b
100
AcDbEntity
  8
Layer_1
 62
7
100
AcDbSpline
 70
8
 71
3
 72
8
 73
4
 74
0
 40
0
 40
0
 40
0
 40
0
 40
1
 40
1
 40
1
 40
1
 10
15.847845
 20
2.308246
 30
0.0
 10
17.623752
 20
2.416718
 30
0.0
 10
22.057069
 20
11.045417
 30
0.0
 10
23.094277
 20
13.352894
 30
0.0
  0
LWPOLYLINE
  5
11c
100
AcDbEntity
  8
Layer_1
 62
7
100
AcDbPolyline
 90
1
 70
1
 10
6.695159
 20
12.008668
 30
0.0
  0
SPLINE
  5
11d
100
AcDbEntity
  8
Layer_1
 62
7
100
AcDbSpline
 70
8
 71
3
 72
8
 73
4
 74
0
 40
0
 40
0
 40
0
 40
0
 40
1
 40
1
 40
1
 40
1
 10
15.291884
 20
12.258835
 30
0.0
 10
13.383029
 20
12.617512
 30
0.0
 10
14.578634
 20
15.827427
 30
0.0
 10
16.245491
 20
14.681436
 30
0.0
  0
SPLINE
  5
11e
100
AcDbEntity
  8
Layer_1
 62
7
100
AcDbSpline
 70
8
 71
3
 72
8
 73
4
 74
0
 40
0
 40
0
 40
0
 40
0
 40
1
 40
1
 40
1
 40
1
 10
16.245491
 20
14.681436
 30
0.0
 10
17.443276
 20
13.933468
 30
0.0
 10
16.663237
 20
11.933682
 30
0.0
 10
15.291884
 20
12.258835
 30
0.0
  0
LWPOLYLINE
  5
11f
100
AcDbEntity
  8
Layer_1
 62
7
100
AcDbPolyline
 90
1
 70
1
 10
23.094277
 20
13.352894
 30
0.0
  0
SPLINE
  5
120
100
AcDbEntity
  8
Layer_1
 62
7
100
AcDbSpline
 70
8
 71
3
 72
8
 73
4
 74
0
 40
0
 40
0
 40
0
 40
0
 40
1
 40
1
 40
1
 40
1
 10
14.971588
 20
15.299654
 30
0.0
 10
13.090388
 20
15.499969
 30
0.0
 10
11.416813
 20
16.786671
 30
0.0
 10
10.666820
 20
18.544340
 30
0.0
  0
SPLINE
  5
121
100
AcDbEntity
  8
Layer_1
 62
7
100
AcDbSpline
 70
8
 71
3
 72
8
 73
4
 74
0
 40
0
 40
0
 40
0
 40
0
 40
1
 40
1
 40
1
 40
1
 10
10.666820
 20
18.544340
 30
0.0
 10
9.694938
 20
20.697310
 30
0.0
 10
10.274316
 20
23.448239
 30
0.0
 10
11.999247
 20
24.974072
 30
0.0
  0
SPLINE
  5
122
100
AcDbEntity
  8
Layer_1
 62
7
100
AcDbSpline
 70
8
 71
3
 72
8
 73
4
 74
0
 40
0
 40
0
 40
0
 40
0
 40
1
 40
1
 40
1
 40
1
 10
11.999247
 20
24.974072
 30
0.0
 10
13.752512
 20
26.671345
 30
0.0
 10
16.748711
 20
26.850457
 30
0.0
 10
18.687012
 20
25.351647
 30
0.0
  0
SPLINE
  5
123
100
AcDbEntity
  8
Layer_1
 62
7
100
AcDbSpline
 70
8
 71
3
 72
8
 73
4
 74
0
 40
0
 40
0
 40
0
 40
0
 40
1
 40
1
 40
1
 40
1
 10
18.687012
 20
25.351647
 30
0.0
 10
20.132666
 20
24.311106
 30
0.0
 10
21.034682
 20
22.479395
 30
0.0
 10
20.941830
 20
20.621644
 30
0.0
  0
SPLINE
  5
124
100
AcDbEntity
  8
Layer_1
 62
7
100
AcDbSpline
 70
8
 71
3
 72
8
 73
4
 74
0
 40
0
 40
0
 40
0
 40
0
 40
1
 40
1
 40
1
 40
1
 10
20.941830
 20
20.621644
 30
0.0
 10
20.906378
 20
18.762986
 30
0.0
 10
19.879111
 20
17.016920
 30
0.0
 10
18.373123
 20
16.074532
 30
0.0
  0
SPLINE
  5
125
100
AcDbEntity
  8
Layer_1
 62
7
100
AcDbSpline
 70
8
 71
3
 72
8
 73
4
 74
0
 40
0
 40
0
 40
0
 40
0
 40
1
 40
1
 40
1
 40
1
 10
18.373123
 20
16.074532
 30
0.0
 10
17.366713
 20
15.435679
 30
0.0
 10
16.150402
 20
15.166728
 30
0.0
 10
14.971588
 20
15.299805
 30
0.0
  0
LWPOLYLINE
  5
126
100
AcDbEntity
  8
Layer_1
 62
7
100
AcDbPolyline
 90
1
 70
1
 10
15.291884
 20
12.258835
 30
0.0
  0
SPLINE
  5
127
100
AcDbEntity
  8
Layer_1
 62
7
100
AcDbSpline
 70
8
 71
3
 72
8
 73
4
 74
0
 40
0
 40
0
 40
0
 40
0
 40
1
 40
1
 40
1
 40
1
 10
15.983720
 20
17.239836
 30
0.0
 10
17.847869
 20
17.439395
 30
0.0
 10
19.304899
 20
19.322658
 30
0.0
 10
19.032930
 20
21.252636
 30
0.0
  0
SPLINE
  5
128
100
AcDbEntity
  8
Layer_1
 62
7
100
AcDbSpline
 70
8
 71
3
 72
8
 73
4
 74
0
 40
0
 40
0
 40
0
 40
0
 40
1
 40
1
 40
1
 40
1
 10
19.032930
 20
21.252636
 30
0.0
 10
18.847798
 20
23.316409
 30
0.0
 10
16.748331
 20
24.859817
 30
0.0
 10
14.792222
 20
24.338394
 30
0.0
  0
SPLINE
  5
129
100
AcDbEntity
  8
Layer_1
 62
7
100
AcDbSpline
 70
8
 71
3
 72
8
 73
4
 74
0
 40
0
 40
0
 40
0
 40
0
 40
1
 40
1
 40
1
 40
1
 10
14.792222
 20
24.338394
 30
0.0
 10
12.978982
 20
23.937839
 30
0.0
 10
11.700962
 20
21.918854
 30
0.0
 10
12.178613
 20
20.021002
 30
0.0
  0
SPLINE
  5
12a
100
AcDbEntity
  8
Layer_1
 62
7
100
AcDbSpline
 70
8
 71
3
 72
8
 73
4
 74
0
 40
0
 40
0
 40
0
 40
0
 40
1
 40
1
 40
1
 40
1
 10
12.178613
 20
20.021002
 30
0.0
 10
12.530797
 20
18.261594
 30
0.0
 10
14.252140
 20
17.002935
 30
0.0
 10
15.983720
 20
17.239836
 30
0.0
  0
LWPOLYLINE
  5
12b
100
AcDbEntity
  8
Layer_1
 62
7
100
AcDbPolyline
 90
2
 70
0
 10
14.971588
 20
15.299805
 30
0.0
 10
14.971588
 20
15.299654
 30
0.0
  0
SPLINE
  5
12c
100
AcDbEntity
  8
Layer_1
 62
7
100
AcDbSpline
 70
8
 71
3
 72
8
 73
4
 74
0
 40
0
 40
0
 40
0
 40
0
 40
1
 40
1
 40
1
 40
1
 10
21.031573
 20
25.305159
 30
0.0
 10
19.959082
 20
25.339175
 30
0.0
 10
19.507956
 20
26.926463
 30
0.0
 10
20.339735
 20
27.583043
 30
0.0
  0
SPLINE
  5
12d
100
AcDbEntity
  8
Layer_1
 62
7
100
AcDbSpline
 70
8
 71
3
 72
8
 73
4
 74
0
 40
0
 40
0
 40
0
 40
0
 40
1
 40
1
 40
1
 40
1
 10
20.339735
 20
27.583043
 30
0.0
 10
21.077247
 20
28.296050
 30
0.0
 10
22.491346
 20
27.694539
 30
0.0
 10
22.402438
 20
26.609625
 30
0.0
  0
SPLINE
  5
12e
100
AcDbEntity
  8
Layer_1
 62
7
100
AcDbSpline
 70
8
 71
3
 72
8
 73
4
 74
0
 40
0
 40
0
 40
0
 40
0
 40
1
 40
1
 40
1
 40
1
 10
22.402438
 20
26.609625
 30
0.0
 10
22.457272
 20
25.859011
 30
0.0
 10
21.739562
 20
25.195024
 30
0.0
 10
21.031573
 20
25.305159
 30
0.0
  0
LWPOLYLINE
  5
12f
100
AcDbEntity
  8
Layer_1
 62
7
100
AcDbPolyline
 90
1
 70
1
 10
15.983720
 20
17.239836
 30
0.0
  0
SPLINE
  5
130
100
AcDbEntity
  8
Layer_1
 62
7
100
AcDbSpline
 70
8
 71
3
 72
8
 73
4
 74
0
 40
0
 40
0
 40
0
 40
0
 40
1
 40
1
 40
1
 40
1
 10
7.681669
 20
27.986885
 30
0.0
 10
9.319951
 20
27.763515
 30
0.0
 10
10.207285
 20
29.095609
 30
0.0
 10
11.193469
 20
30.188649
 30
0.0
  0
SPLINE
  5
131
100
AcDbEntity
  8
Layer_1
 62
7
100
AcDbSpline
 70
8
 71
3
 72
8
 73
4
 74
0
 40
0
 40
0
 40
0
 40
0
 40
1
 40
1
 40
1
 40
1
 10
11.193469
 20
30.188649
 30
0.0
 10
11.783224
 20
30.781468
 30
0.0
 10
12.317294
 20
31.498822
 30
0.0
 10
12.940511
 20
32.016806
 30
0.0
  0
SPLINE
  5
132
100
AcDbEntity
  8
Layer_1
 62
7
100
AcDbSpline
 70
8
 71
3
 72
8
 73
4
 74
0
 40
0
 40
0
 40
0
 40
0
 40
1
 40
1
 40
1
 40
1
 10
12.940511
 20
32.016806
 30
0.0
 10
16.102951
 20
31.877720
 30
0.0
 10
19.264529
 20
31.717846
 30
0.0
 10
22.426579
 20
31.569386
 30
0.0
  0
SPLINE
  5
133
100
AcDbEntity
  8
Layer_1
 62
7
100
AcDbSpline
 70
8
 71
3
 72
8
 73
4
 74
0
 40
0
 40
0
 40
0
 40
0
 40
1
 40
1
 40
1
 40
1
 10
22.426579
 20
31.569386
 30
0.0
 10
23.504836
 20
30.341984
 30
0.0
 10
24.631767
 20
29.149468
 30
0.0
 10
25.653521
 20
27.875805
 30
0.0
  0
SPLINE
  5
134
100
AcDbEntity
  8
Layer_1
 62
7
100
AcDbSpline
 70
8
 71
3
 72
8
 73
4
 74
0
 40
0
 40
0
 40
0
 40
0
 40
1
 40
1
 40
1
 40
1
 10
25.653521
 20
27.875805
 30
0.0
 10
26.211981
 20
28.750539
 30
0.0
 10
26.954844
 20
30.475402
 30
0.0
 10
27.597374
 20
31.670072
 30
0.0
  0
SPLINE
  5
135
100
AcDbEntity
  8
Layer_1
 62
7
100
AcDbSpline
 70
8
 71
3
 72
8
 73
4
 74
0
 40
0
 40
0
 40
0
 40
0
 40
1
 40
1
 40
1
 40
1
 10
27.597374
 20
31.670072
 30
0.0
 10
28.298154
 20
32.761978
 30
0.0
 10
28.808377
 20
33.851389
 30
0.0
 10
27.558097
 20
34.742413
 30
0.0
  0
SPLINE
  5
136
100
AcDbEntity
  8
Layer_1
 62
7
100
AcDbSpline
 70
8
 71
3
 72
8
 73
4
 74
0
 40
0
 40
0
 40
0
 40
0
 40
1
 40
1
 40
1
 40
1
 10
27.558097
 20
34.742413
 30
0.0
 10
26.784038
 20
36.162683
 30
0.0
 10
25.639398
 20
36.986243
 30
0.0
 10
24.025689
 20
37.021694
 30
0.0
  0
SPLINE
  5
137
100
AcDbEntity
  8
Layer_1
 62
7
100
AcDbSpline
 70
8
 71
3
 72
8
 73
4
 74
0
 40
0
 40
0
 40
0
 40
0
 40
1
 40
1
 40
1
 40
1
 10
24.025689
 20
37.021694
 30
0.0
 10
23.005010
 20
37.158513
 30
0.0
 10
21.023336
 20
37.871672
 30
0.0
 10
20.691133
 20
37.574299
 30
0.0
  0
SPLINE
  5
138
100
AcDbEntity
  8
Layer_1
 62
7
100
AcDbSpline
 70
8
 71
3
 72
8
 73
4
 74
0
 40
0
 40
0
 40
0
 40
0
 40
1
 40
1
 40
1
 40
1
 10
20.691133
 20
37.574299
 30
0.0
 10
21.992822
 20
36.031345
 30
0.0
 10
23.308825
 20
34.498822
 30
0.0
 10
24.606080
 20
32.953487
 30
0.0
  0
SPLINE
  5
139
100
AcDbEntity
  8
Layer_1
 62
7
100
AcDbSpline
 70
8
 71
3
 72
8
 73
4
 74
0
 40
0
 40
0
 40
0
 40
0
 40
1
 40
1
 40
1
 40
1
 10
24.606080
 20
32.953487
 30
0.0
 10
22.168805
 20
34.440920
 30
0.0
 10
19.913443
 20
36.474117
 30
0.0
 10
17.030801
 20
36.946482
 30
0.0
  0
SPLINE
  5
13a
100
AcDbEntity
  8
Layer_1
 62
7
100
AcDbSpline
 70
8
 71
3
 72
8
 73
4
 74
0
 40
0
 40
0
 40
0
 40
0
 40
1
 40
1
 40
1
 40
1
 10
17.030801
 20
36.946482
 30
0.0
 10
14.447260
 20
37.552869
 30
0.0
 10
11.863409
 20
36.632403
 30
0.0
 10
9.513955
 20
35.578406
 30
0.0
  0
SPLINE
  5
13b
100
AcDbEntity
  8
Layer_1
 62
7
100
AcDbSpline
 70
8
 71
3
 72
8
 73
4
 74
0
 40
0
 40
0
 40
0
 40
0
 40
1
 40
1
 40
1
 40
1
 10
9.513955
 20
35.578406
 30
0.0
 10
8.758461
 20
35.105701
 30
0.0
 10
7.242317
 20
35.076976
 30
0.0
 10
8.039021
 20
33.933594
 30
0.0
  0
SPLINE
  5
13c
100
AcDbEntity
  8
Layer_1
 62
7
100
AcDbSpline
 70
8
 71
3
 72
8
 73
4
 74
0
 40
0
 40
0
 40
0
 40
0
 40
1
 40
1
 40
1
 40
1
 10
8.039021
 20
33.933594
 30
0.0
 10
7.340495
 20
32.178230
 30
0.0
 10
5.346760
 20
31.449159
 30
0.0
 10
3.963346
 20
30.348712
 30
0.0
  0
SPLINE
  5
13d
100
AcDbEntity
  8
Layer_1
 62
7
100
AcDbSpline
 70
8
 71
3
 72
8
 73
4
 74
0
 40
0
 40
0
 40
0
 40
0
 40
1
 40
1
 40
1
 40
1
 10
3.963346
 20
30.348712
 30
0.0
 10
3.338039
 20
29.953373
 30
0.0
 10
2.212893
 20
29.541896
 30
0.0
 10
3.479871
 20
29.176454
 30
0.0
  0
SPLINE
  5
13e
100
AcDbEntity
  8
Layer_1
 62
7
100
AcDbSpline
 70
8
 71
3
 72
8
 73
4
 74
0
 40
0
 40
0
 40
0
 40
0
 40
1
 40
1
 40
1
 40
1
 10
3.479871
 20
29.176454
 30
0.0
 10
4.649734
 20
28.683301
 30
0.0
 10
5.685122
 20
27.380838
 30
0.0
 10
7.040423
 20
27.896403
 30
0.0
  0
LWPOLYLINE
  5
13f
100
AcDbEntity
  8
Layer_1
 62
7
100
AcDbPolyline
 90
1
 70
1
 10
21.031573
 20
25.305159
 30
0.0
  0
LWPOLYLINE
  5
140
100
AcDbEntity
  8
Layer_1
 62
7
100
AcDbPolyline
 90
4
 70
0
 10
7.040423
 20
27.896403
 30
0.0
 10
7.350446
 20
27.939868
 30
0.0
 10
7.681680
 20
27.986734
 30
0.0
 10
7.681669
 20
27.986885
 30
0.0
  0
ENDSEC
  0
SECTION
  2
OBJECTS
  0
DICTIONARY
  5
C
330
0
100
AcDbDictionary
  3
ACAD_GROUP
350
D
  3
ACAD_MLINESTYLE
350
17
  0
DICTIONARY
  5
D
330
C
100
AcDbDictionary
  0
DICTIONARY
  5
1A
330
C
100
AcDbDictionary
  0
DICTIONARY
  5
17
330
C
100
AcDbDictionary
  3
STANDARD
350
18
  0
DICTIONARY
  5
19
330
C
100
AcDbDictionary
  0
ENDSEC
  0
EOF
